<?xml version="1.0" encoding="utf-8"?>
<!-- Generator: Adobe Illustrator 24.0.0, SVG Export Plug-In . SVG Version: 6.00 Build 0)  -->
<svg version="1.1" id="Layer_1" xmlns="http://www.w3.org/2000/svg" xmlns:xlink="http://www.w3.org/1999/xlink" x="0px" y="0px"
	 viewBox="0 0 405 139" style="enable-background:new 0 0 405 139;" xml:space="preserve">
<style type="text/css">
	.st0{fill:#3174F1;}
	.st1{fill:#249A41;}
	.st2{fill:#E63125;}
	.st3{fill:#F6AD01;}
	.st4{fill:#0E6DCE;}
</style>
<g id="_x23_ffffffff">
</g>
<g id="_x23_3174f1ff">
	<path class="st0" d="M35.1,6.4c5.9-2.5,12.2-3.9,18.6-4.1C60,2,66.3,3,72.3,5c6.1,2.1,11.7,5.3,16.6,9.4c0.5,0.4,0.9,0.8,1.4,1.2
		c-3.3,3.4-6.6,6.8-10,10.2c-2.3-2.1-4.9-3.9-7.7-5.4c-5.5-2.9-11.8-4.3-18-4.2c-6.3,0.1-12.5,1.9-17.8,5.1
		c-4.8,2.9-9,6.8-12.1,11.5c-3.2,4.8-5.2,10.4-5.9,16.1c-0.7,6.4,0.2,13.1,2.8,19c2.5,5.7,6.5,10.8,11.5,14.6c2.4,1.8,5,3.3,7.7,4.5
		c6.5,2.8,13.8,3.7,20.8,2.5c0.3,0,0.5-0.1,0.8-0.2c2.7-0.5,5.4-1.3,8-2.4c1.2-0.5,2.4-1.1,3.5-1.8c2.2-1.3,4.3-2.8,6.1-4.5
		c2.1-2,3.9-4.4,5.2-7c1.8-3.5,2.8-7.4,3.1-11.3c-6.2,0-12.3,0-18.5-0.1c-4.9,0-9.7-0.1-14.6-0.1c0-4.6,0-9.1,0-13.7
		c15.6,0,31.3,0,46.9,0c0.5,3.7,0.7,7.4,0.5,11.1c-0.3,6.1-1.5,12.1-3.9,17.7c-2.1,5-5.2,9.5-9.1,13.3c-3.7,3.7-8.2,6.6-12.9,8.8
		c-1.3,0.6-2.7,1.2-4.1,1.7c-0.7,0.3-1.4,0.6-2.1,0.8c-6.6,2-13.6,2.6-20.5,1.9c-6-0.6-11.8-2.3-17.2-4.9c-4.6-2.2-8.9-5.2-12.7-8.7
		c-4.2-3.9-7.8-8.5-10.4-13.6c-2.4-4.5-4-9.3-4.9-14.3c-1.2-6.7-1.1-13.7,0.4-20.4c1.6-7.2,4.9-14,9.4-19.8
		C19.9,15.3,27,9.8,35.1,6.4z"/>
	<path class="st0" d="M271.1,40.3c2.9-1.2,6-2,9.1-2c3.1-0.1,6.2,0.5,9.1,1.6c3.6,1.3,6.8,3.5,9.7,5.9c0-1.7,0.1-3.4,0.2-5.2
		c4.1,0,8.2,0,12.3,0c0.4,0,0.7,0,1.1,0c0,3.8,0,7.6,0,11.4c0,15.7,0,31.5,0,47.2c0,1.5,0,3,0,4.5c-0.2,3.2-0.8,6.4-1.8,9.5
		c-0.8,2.5-1.9,4.9-3.3,7.1c-2.7,4.2-6.5,7.6-10.9,9.9c-0.8,0.4-1.5,0.8-2.4,1c-3.2,1-6.6,1.6-9.9,1.9c-3.7,0.3-7.4,0.1-11-0.8
		c-2.9-0.7-5.7-1.8-8.2-3.4c-2.1-1.3-4.1-2.9-5.8-4.8c-2.7-2.9-4.8-6.2-6.4-9.7c4.1-1.8,8.2-3.6,12.4-5.4c1,2.2,2.4,4.3,4,6.1
		c1.7,2,3.9,3.6,6.3,4.6c1.7,0.7,3.5,1,5.4,0.9c0.4,0,0.8-0.1,1.2-0.1c3,0,6-0.7,8.6-2.1c2.1-1.1,3.9-2.8,5.3-4.7
		c1.6-2.4,2.6-5.2,3-8c0.5-3,0.5-6,0.2-9c-1,0.8-2.1,1.7-3.2,2.4c-2.2,1.5-4.6,2.8-7.1,3.6c-3.3,1.1-6.8,1.5-10.3,1.2
		c-2.9-0.3-5.7-1-8.3-2.1c-2.6-1.1-5-2.5-7.3-4c-1.2-0.8-2.3-1.9-3.3-2.9c-1.8-1.9-3.4-4-4.8-6.3c-2.8-4.6-4.8-9.7-5.2-15.1
		c-0.2-3.3,0.1-6.6,0.9-9.7c1-3.8,2.8-7.3,5-10.6c0.9-1.3,1.8-2.5,2.8-3.7c1.6-1.8,3.4-3.4,5.3-4.9
		C266.2,42.7,268.5,41.3,271.1,40.3 M281.4,51.4c-2.7,0.2-5.3,1.1-7.5,2.5c-2.4,1.5-4.3,3.5-5.8,5.9c-1.5,2.3-2.5,5-2.9,7.7
		c-0.5,3-0.4,6.1,0.3,9.1c0.6,2.7,1.8,5.2,3.4,7.4c1.6,2.2,3.6,4,5.9,5.3c2.7,1.5,5.9,2.2,9,2c2.8-0.2,5.6-1.1,8-2.7
		c2.2-1.5,4.1-3.4,5.5-5.6c3.1-4.9,4.1-11,2.7-16.6c-0.6-2.7-1.8-5.3-3.4-7.5c-1.5-2.1-3.5-3.9-5.8-5.2
		C287.9,51.8,284.6,51.1,281.4,51.4z"/>
</g>
<g id="_x23_249a41ff">
	<path class="st1" d="M322.5,5.6c4.8,0,9.6,0,14.4,0c0,32.1,0,64.2,0,96.2c-4.8,0-9.6,0-14.4,0C322.5,69.8,322.5,37.7,322.5,5.6z"/>
</g>
<g id="_x23_e63125ff">
	<path class="st2" d="M137.9,38.3c5.8-0.4,11.8,0.8,17,3.4c4.2,2.1,8,5.1,10.9,8.8c2.4,2.9,4.2,6.2,5.4,9.8
		c2.6,7.2,2.5,15.4-0.3,22.6c-2,5.3-5.3,10-9.6,13.6c-2.5,2.1-5.2,3.8-8.2,5.1c-3.6,1.6-7.5,2.4-11.4,2.6c-4.7,0.2-9.5-0.5-13.9-2.3
		c-5-2-9.5-5.2-13-9.4c-3.4-4.1-5.9-8.9-7-14.1c-1.4-6.2-0.9-12.9,1.4-18.8c2-5.2,5.3-9.9,9.5-13.5c4.3-3.7,9.7-6.2,15.3-7.3
		C135.3,38.5,136.6,38.4,137.9,38.3 M139,51.5c-2.8,0.2-5.5,1.1-7.9,2.5c-2.3,1.4-4.3,3.2-5.8,5.4c-1.5,2.1-2.5,4.5-3.1,7
		c-0.7,3.1-0.8,6.3-0.1,9.3c0.6,2.8,1.7,5.4,3.4,7.7c1.5,2.1,3.4,3.9,5.7,5.3c2,1.2,4.2,2,6.5,2.4c2.9,0.4,6,0.1,8.8-0.9
		c1.8-0.7,3.5-1.7,5-2.9c2.9-2.4,5.1-5.6,6.3-9.1c1.7-5,1.4-10.6-0.8-15.4c-1.8-4-5-7.5-9-9.4C145.2,51.9,142,51.3,139,51.5z"/>
	<path class="st2" d="M369.8,39c3-0.4,6-0.4,9,0.1c4.8,0.7,9.3,2.8,12.9,6c3.1,2.6,5.6,5.9,7.5,9.4c1.5,2.7,2.8,5.6,3.8,8.5
		c-3.3,1.4-6.5,2.8-9.8,4.2c-3.9,1.7-7.8,3.3-11.7,4.9c-7.3,3.1-14.6,6.1-22,9.2c0.8,2,2.1,3.8,3.6,5.3c1.5,1.6,3.4,2.9,5.5,3.7
		c2.3,0.9,4.8,1.2,7.3,1c2.5-0.2,5.1-0.7,7.4-1.8c1.9-0.8,3.6-2,5.1-3.4c1.2-1.1,2.2-2.4,3-3.9c3.6,2.4,7.2,4.8,10.9,7.2
		c-1.8,2.8-4.1,5.2-6.7,7.3c-2.9,2.4-6.3,4.2-9.8,5.4c-4.7,1.6-9.7,2.1-14.6,1.4c-4.8-0.6-9.5-2.4-13.6-5.1
		c-4.1-2.7-7.6-6.4-10-10.7c-2.9-4.9-4.4-10.5-4.5-16.2c-0.1-6,1.5-11.9,4.5-17.1c2.6-4.5,6.3-8.3,10.7-11c2.3-1.5,4.9-2.7,7.5-3.5
		C367.1,39.4,368.5,39.2,369.8,39 M368.7,52.3c-1.2,0.4-2.3,0.8-3.4,1.4c-1,0.5-1.9,1.2-2.7,2c-1.9,1.7-3.2,3.9-4.1,6.3
		c-1,2.7-1.4,5.5-1.4,8.4c9.8-4.1,19.6-8.2,29.4-12.3c-0.8-1.5-2-2.9-3.4-3.9c-1.7-1.4-3.8-2.3-6-2.7
		C374.4,50.9,371.4,51.4,368.7,52.3z"/>
</g>
<g id="_x23_f6ad01ff">
	<path class="st3" d="M209.5,38.3c6.3-0.4,12.6,1.1,18.1,4.1c4.8,2.7,9,6.6,11.9,11.3c3.2,5.1,4.9,11.1,5,17.1
		c0.1,6-1.5,11.9-4.5,17.1c-2.7,4.6-6.5,8.5-11,11.3c-2.2,1.4-4.6,2.5-7.1,3.4c-3.3,1.1-6.8,1.7-10.3,1.7c-3.5,0-7-0.6-10.3-1.7
		c-5.2-1.7-10-4.8-13.8-8.8c-3.7-4-6.4-8.8-7.8-14.1c-1.7-6.5-1.4-13.5,0.9-19.8c1.8-4.8,4.7-9.3,8.5-12.8c3.9-3.6,8.7-6.3,13.9-7.7
		C205.1,38.8,207.3,38.4,209.5,38.3 M210.2,51.5c-3.4,0.3-6.8,1.6-9.5,3.7c-4,3.1-6.7,7.8-7.5,12.8c-0.5,3.4-0.2,6.9,0.9,10.1
		c1.7,4.9,5.2,9.1,9.9,11.4c3,1.5,6.5,2,9.8,1.6c2.9-0.4,5.7-1.5,8.1-3.2c2.1-1.5,3.9-3.4,5.3-5.7c1.4-2.2,2.3-4.8,2.8-7.3
		c0.6-3.3,0.3-6.7-0.7-9.9c-0.8-2.4-2-4.7-3.6-6.7c-1.7-2.1-3.9-3.9-6.3-5C216.5,51.9,213.3,51.2,210.2,51.5z"/>
</g>
<g id="_x23_0e6dceff">
	<path class="st4" d="M207.8,114.1c1.4,0,2.8,0,4.2,0c0,3.5,0,7.1,0,10.6c-0.2,0.4,0.1,0.8-0.1,1.2c0,0.4,0,0.7,0,1.1
		c-0.1,0.1-0.1,0.3-0.1,0.4c0.1-0.1,0.2-0.2,0.3-0.3c0.1-0.1,0.2-0.2,0.3-0.4c0.1-0.1,0.2-0.2,0.3-0.4c0.1-0.1,0.2-0.2,0.2-0.3
		c0.1-0.1,0.2-0.2,0.3-0.4c0.1-0.1,0.2-0.2,0.3-0.4c0.1-0.1,0.2-0.2,0.3-0.4c0.2-0.3,0.5-0.4,0.6-0.7c0.3-0.3,0.6-0.5,0.8-0.8
		c0.2-0.4,0.6-0.6,0.9-0.9c0.2-0.4,0.7-0.6,0.9-1c0.3-0.3,0.6-0.6,0.9-0.9c0.1-0.1,0.2-0.3,0.4-0.4c1.6,0,3.2,0,4.8,0
		c-0.1,0.1-0.2,0.2-0.3,0.3c-0.2,0.3-0.6,0.5-0.8,0.9c-0.2,0.3-0.5,0.5-0.7,0.8c-0.2,0.4-0.7,0.6-0.9,1c-0.2,0.3-0.6,0.5-0.8,0.9
		c-0.2,0.3-0.6,0.5-0.8,0.9c-0.2,0.3-0.6,0.5-0.8,0.9c-0.2,0.3-0.6,0.5-0.8,0.9c-0.1,0.2-0.5,0.3-0.3,0.5c0.1,0.1,0.1,0.2,0.2,0.2
		c0.1,0.1,0.1,0.2,0.2,0.3c0.1,0.1,0.1,0.2,0.2,0.3c0.1,0.1,0.2,0.2,0.3,0.4c0.1,0.1,0.2,0.2,0.2,0.3c0,0,0.1,0.1,0.1,0.1
		c0.1,0.1,0.2,0.2,0.3,0.4c0.1,0.1,0.1,0.1,0.2,0.2c0.1,0.1,0.2,0.2,0.3,0.4c0.1,0.1,0.1,0.1,0.2,0.2c0.1,0.1,0.1,0.2,0.2,0.3
		c0.1,0.1,0.1,0.2,0.2,0.3c0.1,0.1,0.2,0.2,0.3,0.4c0.1,0.1,0.1,0.1,0.2,0.2c0.1,0.1,0.2,0.2,0.3,0.4c0.1,0.1,0.1,0.1,0.2,0.2
		c0.1,0.1,0.2,0.2,0.3,0.4c0.1,0.1,0.2,0.2,0.2,0.3c0,0,0.1,0.1,0.1,0.1c0.1,0.1,0.1,0.2,0.2,0.3c0.1,0.1,0.1,0.2,0.2,0.3
		c0.1,0.1,0.2,0.2,0.3,0.4c0.1,0.1,0.1,0.1,0.2,0.2c0.1,0.1,0.2,0.2,0.3,0.4c0.1,0.1,0.2,0.2,0.2,0.3c0.1,0.1,0.2,0.2,0.2,0.3
		c0.1,0.1,0.1,0.1,0.2,0.2c0.1,0.1,0.2,0.2,0.3,0.4c0.1,0.1,0.1,0.1,0.2,0.2c0.1,0.1,0.2,0.2,0.3,0.4c0,0.1,0.1,0.1,0.1,0.2
		c-1.6,0-3.2,0-4.9,0c-0.1,0-0.1-0.1-0.2-0.2c-0.1-0.1-0.2-0.2-0.2-0.3c0,0-0.1-0.1-0.1-0.1c0-0.1-0.1-0.1-0.1-0.2
		c-0.1-0.1-0.2-0.2-0.3-0.4c0,0-0.1-0.1-0.1-0.1c-0.1-0.1-0.2-0.2-0.3-0.4c0,0-0.1-0.1-0.1-0.1c-0.1-0.1-0.2-0.2-0.3-0.4
		c0,0-0.1-0.1-0.1-0.1c-0.1-0.1-0.2-0.2-0.3-0.4c0,0-0.1-0.1-0.1-0.1c-0.1-0.1-0.2-0.2-0.3-0.4c0,0-0.1-0.1-0.1-0.1
		c-0.1-0.1-0.2-0.2-0.3-0.4c0,0-0.1-0.1-0.1-0.1c-0.1-0.1-0.2-0.2-0.3-0.4c0,0-0.1-0.1-0.1-0.1c0-0.1-0.1-0.1-0.1-0.2
		c-0.1-0.1-0.2-0.2-0.3-0.4c0,0-0.1-0.1-0.1-0.1c-0.1-0.1-0.2-0.2-0.3-0.4c0,0-0.1-0.1-0.1-0.1c-0.1-0.1-0.2-0.2-0.3-0.4
		c-0.1-0.1-0.1-0.1-0.1-0.2c-0.1-0.1-0.1-0.1-0.2-0.2c-0.1,0.1-0.2,0.2-0.3,0.3c-0.1,0.1-0.2,0.2-0.4,0.3c-0.2,0.1-0.3,0.3-0.4,0.3
		c-0.1,0.1-0.2,0.2-0.3,0.3c-0.2,0.1-0.3,0.2-0.4,0.3c0,1.6,0,3.2,0,4.8c-1.4,0-2.8,0-4.2,0C207.8,128.6,207.8,121.4,207.8,114.1z"
		/>
	<path class="st4" d="M153.4,115.4c2,0,4,0,6,0c0.1,0,0.3,0,0.4,0.1c0.6,0,1.2,0,1.8,0c0.2,0.2,0.6,0,0.8,0.1c0.1,0,0.3,0,0.4,0
		c0.1,0.1,0.3,0.1,0.4,0.1c0.2,0.1,0.4,0,0.5,0.1c0.1,0,0.1,0,0.2,0c0.1,0,0.2,0.1,0.4,0.1c0.1,0,0.1,0,0.2,0.1c0.1,0,0.1,0,0.2,0.1
		c0.1,0,0.1,0,0.2,0.1c0.1,0,0.1,0,0.2,0.1c0.1,0,0.2,0.1,0.3,0.1c0.1,0.1,0.2,0.2,0.4,0.2c0.1,0.1,0.2,0.1,0.4,0.2
		c0.1,0.1,0.2,0.2,0.3,0.3c0.2,0.1,0.4,0.3,0.6,0.6c0,0.1,0.1,0.1,0.1,0.2c0,0.1,0.1,0.1,0.1,0.2c0,0.1,0.1,0.1,0.1,0.2
		c0,0.1,0,0.1,0.1,0.2c0,0.1,0,0.1,0.1,0.2c0,0.1,0,0.1,0.1,0.2c0,0.1,0,0.1,0.1,0.2c0,0.1,0,0.2,0.1,0.3c0.1,0.2,0,0.5,0.1,0.7
		c0.1,0.2,0,0.4,0.1,0.5c0,0.2,0.1,0.4-0.1,0.6c0,0.1,0,0.3,0,0.4c-0.1,0.1,0,0.3-0.1,0.4c0,0.1,0,0.2-0.1,0.3
		c-0.1,0.1-0.1,0.2-0.2,0.4c0,0,0,0.1,0,0.1c-0.1,0.1-0.1,0.1-0.2,0.2c-0.1,0.1-0.1,0.2-0.2,0.4c0,0-0.1,0.1-0.1,0.1
		c-0.2,0.3-0.4,0.5-0.6,0.7c-0.2,0.1-0.3,0.3-0.5,0.3c-0.1,0-0.1,0.1-0.2,0.1c-0.1,0-0.2,0.1-0.3,0.1c-0.1,0-0.2,0-0.3,0.1
		c-0.1,0.1-0.2,0.1-0.3,0.1c0,0.2,0.2,0.2,0.3,0.3c0,0,0.1,0,0.1,0c0.1,0,0.2,0.1,0.4,0.1c0.2,0,0.3,0.1,0.5,0.2
		c0.1,0,0.1,0.1,0.2,0.1c0.1,0.1,0.2,0.1,0.3,0.2c0.1,0,0.1,0.1,0.2,0.1c0.3,0.2,0.6,0.5,0.8,0.8c0,0.1,0.1,0.1,0.1,0.2
		c0.1,0.1,0.1,0.2,0.2,0.4c0,0.1,0.1,0.2,0.1,0.3c0,0.1,0,0.1,0.1,0.2c0.1,0.1,0.1,0.2,0.1,0.4c0.1,0.1,0,0.3,0.1,0.4
		c0,0.1,0,0.2,0,0.3c0.1,0.1,0.1,0.3,0.1,0.5c0,0.4,0,0.7,0,1.1c0,0,0,0.1-0.1,0.1c0,0.2,0,0.5-0.1,0.7c0,0.1-0.1,0.1-0.1,0.2
		c0,0,0,0.1,0,0.1c0,0.1-0.1,0.1-0.1,0.2c0,0.1-0.1,0.2-0.1,0.4c0,0.1,0,0.1-0.1,0.2c0,0.1-0.1,0.1-0.1,0.2
		c-0.1,0.1-0.2,0.2-0.2,0.4c0,0.1-0.1,0.1-0.1,0.2c-0.2,0.3-0.4,0.4-0.6,0.7c-0.2,0.2-0.4,0.4-0.6,0.5c-0.1,0.1-0.2,0.1-0.4,0.2
		c-0.1,0.1-0.2,0.1-0.3,0.2c-0.1,0.1-0.2,0.2-0.4,0.2c-0.1,0-0.2,0.1-0.3,0.1c-0.1,0-0.1,0-0.2,0.1c-0.1,0-0.2,0.1-0.4,0.1
		c-0.1,0-0.2,0.1-0.3,0.1c0,0-0.1,0-0.1,0c-0.1,0.1-0.3,0-0.4,0.1c-0.1,0-0.3,0-0.4,0.1c-0.1,0-0.2,0-0.3,0c-0.2,0.1-0.5,0-0.7,0.1
		c-0.1,0.1-0.3,0.1-0.5,0.1c-2.8,0-5.6,0-8.4,0C153.4,129,153.4,122.2,153.4,115.4 M157.8,119c0,1.5,0,3,0,4.5c1.2,0,2.4,0,3.6,0
		c0.1-0.1,0.4,0,0.5-0.1c0.1,0,0.2,0,0.3-0.1c0.1,0,0.2-0.1,0.4-0.1c0.1-0.1,0.2-0.1,0.4-0.2c0.1-0.1,0.2-0.2,0.3-0.3
		c0.1-0.1,0.1-0.2,0.2-0.4c0-0.1,0.1-0.2,0.1-0.4c0.1-0.1,0.1-0.2,0.1-0.4c0.1-0.2,0.1-0.6,0-0.8c0-0.1,0-0.3-0.1-0.4
		c0,0,0-0.1,0-0.1c-0.1-0.1-0.1-0.2-0.2-0.3c-0.1-0.2-0.2-0.3-0.4-0.4c-0.1-0.1-0.2-0.2-0.4-0.2c-0.1-0.1-0.3-0.1-0.5-0.2
		c0,0-0.1,0-0.1,0c-0.1-0.1-0.3-0.1-0.4-0.1c-0.2-0.1-0.5,0-0.7-0.1c0,0-0.1,0-0.1-0.1C159.7,119,158.8,119,157.8,119 M157.8,127
		c0,1.8,0,3.5,0,5.3c1.2,0,2.3,0,3.5,0c0.1,0,0.3,0,0.4-0.1c0.1,0,0.3,0,0.4-0.1c0.1,0,0.1-0.1,0.2-0.1c0.1,0,0.1,0,0.2-0.1
		c0.1,0,0.1,0,0.2-0.1c0.1-0.1,0.2-0.2,0.4-0.2c0.2-0.2,0.5-0.4,0.6-0.6c0.1-0.1,0.1-0.2,0.2-0.3c0-0.1,0-0.2,0.1-0.4
		c0-0.1,0-0.1,0-0.2c0.1-0.2,0-0.4,0.1-0.6c0-0.3,0-0.5,0-0.8c0-0.1-0.1-0.1-0.1-0.2c0-0.1-0.1-0.2-0.1-0.3
		c-0.2-0.4-0.5-0.7-0.8-0.9c-0.1,0-0.2-0.1-0.3-0.1c-0.1-0.1-0.2-0.1-0.4-0.1c0,0-0.1,0-0.1,0c-0.1-0.1-0.2-0.1-0.3-0.1
		c-0.2-0.1-0.4,0-0.5-0.1C160.2,127,159,127,157.8,127z"/>
	<path class="st4" d="M178,120.1c0.1-0.1,0.3-0.1,0.4-0.1c0.5,0,1.1,0,1.6,0c0,0,0.1,0,0.1,0.1c0.1,0,0.2,0,0.3,0
		c0.2,0.1,0.4,0,0.5,0.1c0.1,0,0.2,0,0.3,0.1c0,0,0.1,0,0.1,0c0.1,0,0.2,0.1,0.4,0.1c0,0,0.1,0,0.1,0c0.1,0.1,0.3,0.1,0.4,0.2
		c0.1,0.1,0.2,0.1,0.4,0.2c0.1,0.1,0.2,0.1,0.3,0.1c0.1,0.1,0.2,0.1,0.4,0.2c0.1,0,0.1,0.1,0.2,0.1c0,0,0.1,0.1,0.1,0.1
		c0.2,0.1,0.4,0.4,0.6,0.5c0.2,0.2,0.4,0.4,0.5,0.6c0.1,0.1,0.2,0.2,0.3,0.4c0,0.1,0.1,0.1,0.1,0.2c0.1,0.2,0.2,0.3,0.2,0.4
		c0,0.1,0.1,0.1,0.1,0.2c0,0.1,0,0.1,0.1,0.2c0.1,0.2,0.1,0.4,0.2,0.5c0,0.1,0.1,0.2,0.1,0.3c0,0.1,0.1,0.2,0.1,0.4c0,0,0,0.1,0,0.1
		c0,0.1,0.1,0.2,0.1,0.4c0,0.1,0,0.1,0,0.2c0.1,0.1,0,0.3,0.1,0.5c0.1,0.1,0,0.4,0.1,0.5c0,0.7,0,1.4,0,2.1c-0.2,0.3,0,0.7-0.1,1
		c0,0.1,0,0.1,0,0.2c-0.1,0.1-0.1,0.2-0.1,0.3c-0.1,0.1,0,0.3-0.1,0.4c0,0.1,0,0.2-0.1,0.3c0,0.1,0,0.2-0.1,0.3
		c0,0.1-0.1,0.2-0.1,0.3c0,0.1-0.1,0.1-0.1,0.2c0,0-0.1,0.1-0.1,0.1c-0.1,0.2-0.1,0.4-0.2,0.6c-0.1,0.1-0.1,0.2-0.2,0.3
		c-0.1,0.1-0.1,0.2-0.2,0.3c-0.1,0.1-0.2,0.2-0.3,0.4c-0.1,0.1-0.2,0.2-0.2,0.3c-0.2,0.2-0.3,0.4-0.5,0.5c-0.1,0.1-0.2,0.2-0.3,0.3
		c-0.2,0.1-0.4,0.4-0.6,0.4c-0.1,0.1-0.3,0.1-0.4,0.2c-0.2,0.1-0.3,0.2-0.5,0.3c0,0-0.1,0-0.1,0c-0.1,0-0.2,0.1-0.4,0.1
		c-0.1,0-0.2,0-0.3,0.1c0,0-0.1,0-0.1,0c-0.1,0-0.2,0.1-0.3,0.1c-0.1,0-0.2,0.1-0.3,0.1c-0.3,0.1-0.6,0-0.9,0.1c-0.7,0-1.3,0-2,0
		c-0.2-0.1-0.4,0-0.5-0.1c-0.1,0-0.3,0-0.4-0.1c-0.1,0-0.2,0-0.3-0.1c0,0-0.1,0-0.1,0c-0.1,0-0.1-0.1-0.2-0.1
		c-0.1,0-0.2-0.1-0.3-0.1c-0.1,0-0.2-0.1-0.4-0.1c0,0-0.1-0.1-0.1-0.1c-0.1,0-0.2-0.1-0.3-0.1c-0.1,0-0.2-0.1-0.2-0.1
		c-0.1-0.1-0.2-0.1-0.3-0.2c-0.1,0-0.1-0.1-0.2-0.1c-0.1-0.1-0.2-0.2-0.4-0.3c-0.3-0.3-0.6-0.6-0.9-0.9c-0.1-0.2-0.2-0.3-0.3-0.4
		c-0.1-0.1-0.1-0.2-0.2-0.3c-0.1-0.2-0.2-0.3-0.3-0.5c0-0.1-0.1-0.2-0.1-0.3c-0.1-0.1-0.1-0.3-0.2-0.4c-0.1-0.1-0.1-0.2-0.2-0.3
		c0-0.1-0.1-0.2-0.1-0.4c0,0,0-0.1,0-0.1c0-0.1-0.1-0.2-0.1-0.3c0-0.1-0.1-0.2-0.1-0.3c-0.1-0.2,0-0.3-0.1-0.5
		c-0.1-0.2,0-0.4-0.1-0.5c0-0.7,0-1.5,0-2.2c0.2-0.3,0-0.6,0.1-0.9c0-0.1,0-0.2,0.1-0.3c0-0.1,0-0.1,0-0.2c0.1-0.1,0-0.3,0.1-0.4
		c0-0.1,0-0.1,0-0.2c0.1-0.1,0.1-0.3,0.1-0.4c0.1-0.1,0.1-0.3,0.2-0.4c0,0,0.1-0.1,0.1-0.1c0.1-0.2,0.1-0.3,0.2-0.5
		c0.1-0.1,0.1-0.3,0.2-0.4c0.1-0.1,0.1-0.2,0.2-0.3c0.1-0.1,0.2-0.2,0.3-0.4c0.1-0.1,0.2-0.2,0.2-0.3c0.1-0.1,0.1-0.2,0.2-0.2
		c0.2-0.1,0.3-0.3,0.5-0.4c0.1-0.1,0.3-0.3,0.4-0.4c0.1-0.1,0.2-0.1,0.3-0.2c0.1,0,0.1-0.1,0.2-0.1c0.1-0.1,0.3-0.1,0.4-0.2
		c0.1-0.1,0.2-0.1,0.3-0.1c0.1,0,0.1,0,0.2-0.1c0.1,0,0.2-0.1,0.4-0.1c0,0,0.1,0,0.1,0c0.1,0,0.2-0.1,0.3-0.1c0.1,0,0.2-0.1,0.4-0.1
		c0.1,0,0.1,0,0.2,0C177.5,120.1,177.8,120.2,178,120.1 M178.2,123.5c-0.1,0-0.2,0-0.3,0.1c-0.1,0-0.1,0.1-0.2,0.1c0,0-0.1,0-0.1,0
		c-0.1,0.1-0.2,0.2-0.4,0.2c-0.1,0-0.1,0.1-0.2,0.1c-0.1,0.1-0.2,0.1-0.2,0.2c-0.1,0.2-0.3,0.3-0.4,0.5c0,0.1-0.1,0.2-0.1,0.2
		c-0.1,0.1-0.1,0.2-0.1,0.4c0,0.1-0.1,0.2-0.1,0.4c0,0,0,0.1,0,0.1c-0.1,0.1-0.1,0.2-0.1,0.4c-0.1,0.2,0,0.4-0.1,0.5
		c-0.1,0.3,0.1,0.7-0.1,1c0,0.3-0.1,0.5,0.1,0.8c0,0.3-0.1,0.6,0.1,0.9c0,0.2,0,0.3,0.1,0.5c0,0.1,0,0.2,0.1,0.4c0,0,0,0.1,0,0.1
		c0,0.1,0.1,0.2,0.1,0.3c0,0.2,0.1,0.3,0.2,0.4c0,0.1,0.1,0.2,0.1,0.3c0.1,0.2,0.3,0.3,0.4,0.5c0,0,0.1,0.1,0.1,0.2
		c0.1,0.1,0.2,0.1,0.3,0.2c0.1,0.1,0.2,0.1,0.3,0.2c0.1,0,0.1,0,0.2,0.1c0,0,0.1,0,0.1,0c0.1,0,0.1,0.1,0.2,0.1
		c0.2,0.1,0.5,0,0.7,0.1c0.1,0.1,0.3,0.1,0.4,0c0.2,0,0.4,0,0.6-0.1c0,0,0.1,0,0.1,0c0.1,0,0.2-0.1,0.3-0.1c0.1,0,0.1,0,0.2-0.1
		c0.1-0.1,0.2-0.1,0.3-0.2c0.1,0,0.1-0.1,0.2-0.1c0,0,0.1-0.1,0.2-0.1c0.2-0.3,0.4-0.5,0.5-0.8c0,0,0.1-0.1,0.1-0.1
		c0-0.1,0.1-0.2,0.1-0.3c0-0.1,0.1-0.2,0.1-0.4c0,0,0-0.1,0-0.1c0.1-0.1,0.1-0.2,0.1-0.4c0.1-0.2,0-0.3,0.1-0.5c0,0,0-0.1,0.1-0.1
		c0-0.8,0-1.6,0-2.4c-0.1-0.1-0.1-0.3-0.1-0.4c-0.1-0.2,0-0.4-0.1-0.5c0,0,0-0.1,0-0.1c0-0.1-0.1-0.2-0.1-0.4c0-0.1-0.1-0.1-0.1-0.2
		c-0.1-0.1-0.1-0.3-0.2-0.4c-0.2-0.4-0.5-0.6-0.8-0.8c0,0-0.1-0.1-0.1-0.1c-0.1,0-0.2-0.1-0.2-0.2c-0.1,0-0.2,0-0.3-0.1
		c0,0-0.1,0-0.1,0c-0.1,0-0.2-0.1-0.3-0.1c-0.2-0.1-0.5,0-0.8-0.1C178.7,123.5,178.4,123.4,178.2,123.5z"/>
	<path class="st4" d="M195.8,120.1c0.7,0,1.3,0,2,0c0.1,0.1,0.2,0.1,0.4,0.1c0.2,0.1,0.4,0,0.5,0.1c0.1,0,0.2,0,0.3,0.1
		c0,0,0.1,0,0.1,0c0.1,0,0.2,0.1,0.4,0.1c0.1,0,0.1,0,0.2,0.1c0.1,0,0.2,0.1,0.4,0.1c0.1,0.1,0.3,0.1,0.4,0.2
		c0.2,0.1,0.4,0.2,0.5,0.3c0.1,0,0.1,0.1,0.2,0.1c0.1,0,0.1,0.1,0.2,0.1c0.4,0.3,0.7,0.7,1.1,1.1c0.1,0.2,0.2,0.3,0.3,0.4
		c0,0.1,0.1,0.1,0.1,0.2c0.1,0.2,0.2,0.3,0.2,0.4c0,0.1,0.1,0.1,0.1,0.2c0,0.1,0,0.1,0.1,0.2c0.1,0.1,0.1,0.3,0.2,0.4
		c0.1,0.1,0.1,0.2,0.2,0.3c0,0.1,0.1,0.2,0.1,0.4c0,0,0,0.1,0,0.1c0,0.1,0.1,0.2,0.1,0.4c0,0.1,0,0.1,0,0.2c0.1,0.1,0,0.3,0.1,0.5
		c0.1,0.1,0,0.4,0.1,0.5c0,0.6,0,1.2,0,1.7c0,0.1,0,0.3-0.1,0.4c0,0.3,0.1,0.6-0.1,0.9c0,0.1,0,0.1,0,0.2c-0.1,0.1-0.1,0.2-0.1,0.3
		c-0.1,0.1,0,0.3-0.1,0.4c0,0.1,0,0.2-0.1,0.3c0,0.1,0,0.2-0.1,0.3c0,0.1-0.1,0.2-0.1,0.3c0,0-0.1,0.1-0.1,0.1
		c0,0.1-0.1,0.1-0.1,0.2c-0.1,0.2-0.1,0.4-0.2,0.6c-0.1,0.1-0.1,0.2-0.2,0.3c-0.1,0.1-0.2,0.2-0.3,0.4c-0.1,0.1-0.1,0.1-0.2,0.2
		c-0.1,0.1-0.2,0.2-0.3,0.4c-0.2,0.2-0.3,0.4-0.5,0.5c-0.1,0.1-0.2,0.2-0.3,0.3c-0.2,0.1-0.3,0.3-0.6,0.4c-0.1,0-0.2,0.1-0.3,0.1
		c-0.1,0-0.2,0.1-0.3,0.1c-0.1,0.1-0.3,0.2-0.4,0.3c0,0-0.1,0-0.1,0c-0.1,0-0.2,0.1-0.4,0.1c-0.1,0-0.2,0-0.3,0.1c0,0-0.1,0-0.1,0
		c-0.1,0-0.2,0.1-0.3,0.1c-0.1,0-0.2,0.1-0.3,0.1c-0.2,0.1-0.5,0-0.8,0.1c-0.1,0.1-0.3,0.1-0.4,0.1c-0.5,0-1.1,0-1.6,0
		c0,0-0.1,0-0.1-0.1c-0.1,0-0.2,0-0.3,0c-0.2-0.1-0.4,0-0.5-0.1c-0.1,0-0.2,0-0.3-0.1c0,0-0.1,0-0.1,0c-0.1,0-0.1-0.1-0.2-0.1
		c-0.1,0-0.1,0-0.2-0.1c-0.1,0-0.2-0.1-0.3-0.1c-0.1,0-0.2-0.1-0.3-0.1c-0.1-0.1-0.3-0.1-0.4-0.2c-0.1-0.1-0.3-0.1-0.4-0.2
		c-0.1,0-0.1-0.1-0.2-0.1c-0.1-0.1-0.2-0.2-0.4-0.3c-0.2-0.2-0.4-0.4-0.6-0.6c-0.1-0.1-0.3-0.2-0.4-0.4c-0.1-0.1-0.2-0.2-0.3-0.4
		c-0.1-0.1-0.2-0.2-0.2-0.4c-0.1-0.2-0.2-0.3-0.3-0.5c-0.1-0.1-0.1-0.2-0.1-0.3c0-0.1-0.1-0.2-0.1-0.4c-0.1-0.1-0.1-0.2-0.2-0.3
		c0-0.1-0.1-0.2-0.1-0.4c0,0,0-0.1,0-0.1c0-0.1-0.1-0.2-0.1-0.3c0-0.1-0.1-0.2-0.1-0.3c-0.1-0.2,0-0.4-0.1-0.6c0-0.1,0-0.3-0.1-0.4
		c0-0.6,0-1.3,0-1.9c0-0.1,0-0.3,0.1-0.4c0-0.3-0.1-0.6,0.1-0.9c0-0.1,0-0.1,0-0.2c0-0.1,0.1-0.2,0.1-0.3c0.1-0.1,0-0.3,0.1-0.4
		c0-0.1,0-0.1,0-0.2c0.1-0.1,0.1-0.3,0.1-0.4c0-0.1,0.1-0.2,0.1-0.4c0,0,0.1-0.1,0.1-0.1c0.1-0.1,0.1-0.3,0.2-0.4
		c0-0.1,0.1-0.2,0.1-0.2c0.1-0.1,0.1-0.2,0.2-0.3c0.1-0.1,0.2-0.2,0.3-0.4c0.1-0.1,0.1-0.1,0.2-0.2c0.1-0.1,0.2-0.2,0.3-0.4
		c0.1-0.1,0.1-0.2,0.2-0.2c0.2-0.1,0.3-0.2,0.4-0.4c0.2-0.1,0.3-0.3,0.5-0.4c0.1-0.1,0.2-0.2,0.4-0.2c0.1-0.1,0.2-0.1,0.3-0.2
		c0.1-0.1,0.2-0.1,0.4-0.2c0.1-0.1,0.2-0.1,0.4-0.1c0.1,0,0.2-0.1,0.4-0.1c0,0,0.1,0,0.1,0c0.1,0,0.2-0.1,0.3-0.1
		c0.1,0,0.2-0.1,0.3-0.1c0.1,0,0.2-0.1,0.3-0.1C195.2,120,195.6,120.2,195.8,120.1 M195.9,123.5c-0.1,0-0.2,0-0.3,0.1
		c0,0-0.1,0-0.1,0c-0.1,0-0.1,0.1-0.2,0.1c-0.1,0-0.2,0.1-0.3,0.2c-0.1,0.1-0.2,0.1-0.3,0.2c-0.1,0.1-0.2,0.1-0.2,0.2
		c-0.2,0.3-0.4,0.5-0.5,0.8c0,0.1-0.1,0.2-0.1,0.3c0,0.1-0.1,0.2-0.1,0.4c0,0,0,0.1,0,0.1c-0.1,0.1-0.1,0.2-0.1,0.4
		c-0.1,0.2,0,0.4-0.1,0.5c0,0.3,0,0.6,0,0.9c-0.1,0.2,0,0.5-0.1,0.8c0.1,0.3,0,0.6,0.1,0.9c0.1,0.2,0,0.4,0.1,0.6
		c0,0.1,0,0.2,0.1,0.4c0,0.1,0.1,0.1,0.1,0.2c0,0,0,0.1,0,0.1c0.1,0.1,0.1,0.3,0.2,0.4c0,0.1,0.1,0.2,0.1,0.3
		c0.1,0.2,0.3,0.4,0.4,0.6c0,0,0.1,0.1,0.2,0.1c0.1,0,0.1,0.1,0.2,0.1c0.1,0.1,0.2,0.2,0.4,0.2c0.1,0,0.1,0,0.2,0.1c0,0,0.1,0,0.1,0
		c0.1,0,0.1,0.1,0.2,0.1c0.2,0.1,0.5,0,0.7,0.1c0.1,0.1,0.3,0.1,0.4,0c0.2,0,0.4,0,0.6-0.1c0.1,0,0.1,0,0.2-0.1
		c0.1,0,0.1-0.1,0.2-0.1c0,0,0.1,0,0.1,0c0.1-0.1,0.2-0.2,0.4-0.2c0.1,0,0.1-0.1,0.2-0.1c0-0.1,0.1-0.1,0.2-0.1
		c0.1-0.2,0.3-0.3,0.4-0.5c0-0.1,0.1-0.2,0.1-0.3c0.1-0.1,0.1-0.3,0.2-0.4c0-0.1,0.1-0.2,0.1-0.4c0,0,0-0.1,0-0.1
		c0.1-0.1,0.1-0.2,0.1-0.4c0.1-0.2,0-0.4,0.1-0.6c0-0.7,0-1.4,0-2.1c0-0.1,0-0.3-0.1-0.4c0-0.1,0-0.3-0.1-0.4c0-0.1,0-0.3-0.1-0.4
		c0,0,0-0.1,0-0.1c0-0.1-0.1-0.2-0.1-0.4c0-0.1-0.1-0.1-0.1-0.2c0-0.1-0.1-0.2-0.1-0.2c-0.1-0.1-0.1-0.2-0.1-0.3
		c-0.2-0.3-0.5-0.6-0.7-0.8c0,0-0.1-0.1-0.1-0.1c-0.1,0-0.2-0.1-0.2-0.2c-0.1,0-0.2,0-0.3-0.1c0,0-0.1,0-0.1,0
		c-0.1,0-0.2-0.1-0.3-0.1c-0.2-0.1-0.5,0-0.8-0.1C196.4,123.5,196.1,123.4,195.9,123.5z"/>
	<path class="st4" d="M229.4,120.1c0.1-0.1,0.3-0.1,0.4-0.1c0.7,0,1.4,0,2.1,0c0.2,0.1,0.4,0,0.6,0.1c0.1,0.1,0.3,0.1,0.4,0.1
		c0.1,0.1,0.4,0,0.5,0.1c0.1,0,0.2,0,0.3,0.1c0.1,0,0.2,0,0.3,0.1c0,0,0.1,0,0.1,0c0.1,0,0.2,0.1,0.3,0.1c0.1,0,0.2,0.1,0.4,0.1
		c0.1,0,0.2,0.1,0.3,0.1c0.1,0,0.2,0.1,0.3,0.1c0.1,0.1,0.2,0.1,0.4,0.1c0.1,0,0.2,0.1,0.3,0.1c0,0,0.1,0.1,0.2,0.1
		c0,0.1,0,0.3-0.1,0.4c0,0.1-0.1,0.2-0.1,0.3c0,0-0.1,0.1-0.1,0.1c-0.1,0.1-0.1,0.2-0.1,0.4c-0.1,0.2-0.1,0.3-0.2,0.5
		c-0.1,0.2-0.1,0.4-0.2,0.6c0,0.1-0.1,0.2-0.1,0.4c0,0.1-0.1,0.2-0.1,0.3c0,0.1-0.1,0.2-0.1,0.3c-0.1,0-0.1-0.1-0.2-0.1
		c-0.1,0-0.2-0.1-0.3-0.1c-0.1-0.1-0.2-0.1-0.4-0.1c-0.1-0.1-0.2-0.1-0.4-0.1c-0.1,0-0.2-0.1-0.3-0.1c-0.1,0-0.2-0.1-0.3-0.1
		c-0.1,0-0.1-0.1-0.2-0.1c0,0-0.1,0-0.1,0c-0.1,0-0.3-0.1-0.4-0.1c-0.1,0-0.1,0-0.2,0c-0.1-0.1-0.2-0.1-0.4-0.1
		c-0.2-0.1-0.4,0-0.6-0.1c-0.3,0-0.6,0-1,0c-0.2,0-0.3,0-0.5,0.1c-0.1,0-0.2,0-0.3,0.1c-0.1,0-0.1,0.1-0.2,0.1c0,0-0.1,0-0.1,0
		c-0.1,0.1-0.2,0.3-0.4,0.3c0,0.1,0,0.1,0,0.2c-0.1,0.2-0.1,0.4,0,0.6c0,0,0,0.1,0,0.1c0.1,0.1,0.1,0.1,0.2,0.2
		c0,0.1,0.1,0.2,0.2,0.2c0.1,0.1,0.2,0.2,0.3,0.2c0.1,0,0.2,0.1,0.3,0.1c0.1,0,0.2,0.1,0.3,0.1c0.1,0,0.2,0.1,0.3,0.1
		c0.2,0.1,0.3,0.2,0.5,0.2c0.1,0,0.1,0.1,0.2,0.1c0.1,0,0.2,0.1,0.4,0.1c0.1,0,0.2,0.1,0.3,0.1c0.1,0.1,0.3,0.1,0.4,0.2
		c0.2,0.1,0.4,0.1,0.6,0.3c0.2,0.1,0.3,0.2,0.5,0.3c0.1,0,0.2,0.1,0.3,0.1c0.1,0,0.1,0.1,0.2,0.1c0.1,0,0.1,0.1,0.2,0.1
		c0.1,0.1,0.2,0.1,0.4,0.2c0.1,0,0.1,0.1,0.2,0.1c0.2,0.2,0.4,0.4,0.6,0.6c0.1,0.1,0.1,0.1,0.2,0.2c0,0.1,0.1,0.1,0.1,0.2
		c0.1,0.1,0.1,0.2,0.2,0.3c0,0.1,0.1,0.2,0.2,0.3c0,0.1,0,0.1,0.1,0.2c0,0,0,0.1,0,0.1c0,0.1,0.1,0.1,0.1,0.2c0,0.1,0,0.1,0.1,0.2
		c0.1,0.2,0,0.4,0.1,0.6c0.1,0.2,0,0.4,0.1,0.5c0,0.2,0,0.4-0.1,0.5c0,0.2,0,0.4-0.1,0.6c0,0.1,0,0.2-0.1,0.3c0,0,0,0.1,0,0.1
		c0,0.1-0.1,0.2-0.1,0.3c0,0.1,0,0.1-0.1,0.2c-0.1,0.2-0.2,0.3-0.3,0.4c-0.1,0.1-0.1,0.1-0.1,0.2c-0.1,0.2-0.3,0.4-0.5,0.6
		c-0.2,0.1-0.3,0.2-0.4,0.4c-0.1,0.1-0.2,0.1-0.4,0.2c-0.2,0.1-0.3,0.2-0.4,0.3c-0.1,0-0.1,0-0.2,0.1c-0.1,0-0.3,0.1-0.4,0.1
		c-0.1,0-0.1,0-0.2,0.1c-0.1,0-0.1,0-0.2,0.1c-0.1,0-0.2,0-0.3,0.1c-0.1,0.1-0.3,0-0.4,0.1c-0.1,0.1-0.3,0.1-0.4,0.1
		c-0.1,0.1-0.3,0-0.5,0.1c-0.1,0.1-0.3,0.1-0.4,0.1c-0.9,0-1.8,0-2.7,0c0,0-0.1,0-0.1-0.1c-0.2,0-0.4,0-0.5-0.1
		c-0.2,0-0.4,0-0.6-0.1c-0.1,0-0.2,0-0.4-0.1c-0.1,0-0.2,0-0.3-0.1c-0.1,0-0.2,0-0.3-0.1c-0.1,0-0.2,0-0.3-0.1c0,0-0.1,0-0.1,0
		c-0.1,0-0.2-0.1-0.3-0.1c0,0-0.1,0-0.1,0c-0.1,0-0.2-0.1-0.3-0.1c-0.1,0-0.2-0.1-0.3-0.1c0-1.2,0-2.3,0-3.5c0.1,0,0.2,0.1,0.3,0.1
		c0.1,0,0.2,0.1,0.4,0.1c0.1,0,0.2,0.1,0.3,0.1c0.1,0.1,0.2,0.1,0.4,0.1c0,0,0.1,0,0.1,0c0.1,0,0.1,0.1,0.2,0.1c0.1,0,0.1,0,0.2,0.1
		c0.1,0,0.2,0.1,0.4,0.1c0,0,0.1,0,0.1,0c0.1,0,0.1,0.1,0.2,0.1c0.1,0.1,0.3,0,0.4,0.1c0.1,0,0.2,0,0.3,0c0.1,0.1,0.2,0.1,0.4,0.1
		c0.1,0.1,0.3,0,0.4,0.1c0.3,0,0.6-0.1,0.9,0.1c0.4,0,0.7,0.1,1.1-0.1c0.1,0,0.3,0,0.4-0.1c0.1,0,0.2,0,0.3-0.1c0,0,0.1,0,0.1,0
		c0.1-0.1,0.2-0.2,0.4-0.2c0.1-0.1,0.2-0.2,0.3-0.4c0.1-0.3,0.1-0.7,0-1c-0.1-0.1-0.2-0.2-0.2-0.4c-0.1-0.1-0.2-0.2-0.4-0.3
		c-0.1,0-0.1-0.1-0.2-0.1c-0.2-0.1-0.4-0.2-0.6-0.3c0,0-0.1-0.1-0.1-0.1c-0.1,0-0.2-0.1-0.2-0.1c-0.1-0.1-0.2-0.1-0.3-0.1
		c-0.2-0.1-0.4-0.2-0.6-0.2c-0.1,0-0.2-0.1-0.2-0.1c-0.1-0.1-0.3-0.1-0.4-0.2c0,0-0.1-0.1-0.1-0.1c-0.1-0.1-0.2-0.1-0.4-0.1
		c-0.1-0.1-0.3-0.1-0.4-0.2c-0.1-0.1-0.2-0.1-0.4-0.1c0,0-0.1-0.1-0.1-0.1c-0.2-0.1-0.3-0.2-0.5-0.3c-0.1,0-0.3-0.1-0.4-0.2
		c-0.1,0-0.1-0.1-0.2-0.1c-0.3-0.2-0.5-0.6-0.9-0.8c-0.1-0.1-0.1-0.2-0.2-0.3c0,0-0.1-0.1-0.1-0.1c-0.1-0.1-0.2-0.2-0.2-0.4
		c0-0.1-0.1-0.2-0.1-0.4c0,0,0-0.1,0-0.1c-0.1-0.1-0.1-0.2-0.1-0.3c-0.1-0.1-0.1-0.3-0.1-0.4c-0.1-0.3,0-0.6-0.1-0.8
		c0.1-0.3,0-0.6,0.1-0.8c0-0.1,0-0.2,0.1-0.4c0-0.1,0.1-0.1,0.1-0.2c0,0,0-0.1,0-0.1c0-0.1,0.1-0.2,0.1-0.3c0-0.1,0.1-0.1,0.1-0.2
		c0.1-0.1,0.1-0.2,0.2-0.3c0,0,0.1-0.1,0.1-0.1c0.1-0.2,0.3-0.3,0.4-0.5c0.2-0.1,0.3-0.4,0.6-0.4c0.1-0.1,0.3-0.2,0.4-0.3
		c0.1,0,0.1-0.1,0.2-0.1c0.1,0,0.2-0.1,0.4-0.1c0.1,0,0.1,0,0.2-0.1c0.1,0,0.1-0.1,0.2-0.1c0,0,0.1,0,0.1,0c0.1,0,0.1-0.1,0.2-0.1
		c0.1,0,0.2,0,0.4-0.1c0.1-0.1,0.3-0.1,0.4-0.1C229,120.1,229.2,120.1,229.4,120.1z"/>
</g>
</svg>
